<mxfile host="app.diagrams.net" modified="2023-03-05T11:43:20.786Z" agent="5.0 (Windows NT 10.0; Win64; x64) AppleWebKit/537.36 (KHTML, like Gecko) Chrome/110.0.0.0 Safari/537.36" etag="HSLm-uR1HrumGq8kYMH4" version="21.0.2" type="github">
  <diagram name="Страница 1" id="qYbamkWBOVK8EjHwo0-N">
    <mxGraphModel dx="880" dy="484" grid="1" gridSize="10" guides="1" tooltips="1" connect="1" arrows="1" fold="1" page="1" pageScale="1" pageWidth="827" pageHeight="1169" math="0" shadow="0">
      <root>
        <mxCell id="0" />
        <mxCell id="1" parent="0" />
        <mxCell id="uOfbAhcUC9eBJrv4FeB4-1" value="START" style="rounded=1;whiteSpace=wrap;html=1;" vertex="1" parent="1">
          <mxGeometry x="330" y="20" width="120" height="60" as="geometry" />
        </mxCell>
        <mxCell id="uOfbAhcUC9eBJrv4FeB4-2" value="n" style="shape=parallelogram;perimeter=parallelogramPerimeter;whiteSpace=wrap;html=1;fixedSize=1;" vertex="1" parent="1">
          <mxGeometry x="330" y="110" width="120" height="30" as="geometry" />
        </mxCell>
        <mxCell id="uOfbAhcUC9eBJrv4FeB4-3" value="i=1&lt;br&gt;fac=1" style="rounded=0;whiteSpace=wrap;html=1;" vertex="1" parent="1">
          <mxGeometry x="330" y="180" width="120" height="60" as="geometry" />
        </mxCell>
        <mxCell id="uOfbAhcUC9eBJrv4FeB4-5" style="edgeStyle=orthogonalEdgeStyle;rounded=0;orthogonalLoop=1;jettySize=auto;html=1;" edge="1" parent="1" source="uOfbAhcUC9eBJrv4FeB4-4">
          <mxGeometry relative="1" as="geometry">
            <mxPoint x="540" y="320" as="targetPoint" />
          </mxGeometry>
        </mxCell>
        <mxCell id="uOfbAhcUC9eBJrv4FeB4-4" value="I=N" style="rhombus;whiteSpace=wrap;html=1;" vertex="1" parent="1">
          <mxGeometry x="350" y="290" width="100" height="60" as="geometry" />
        </mxCell>
        <mxCell id="uOfbAhcUC9eBJrv4FeB4-6" value="NO" style="text;html=1;align=center;verticalAlign=middle;resizable=0;points=[];autosize=1;strokeColor=none;fillColor=none;" vertex="1" parent="1">
          <mxGeometry x="470" y="290" width="40" height="30" as="geometry" />
        </mxCell>
        <mxCell id="uOfbAhcUC9eBJrv4FeB4-7" value="fac=fac*i" style="rounded=0;whiteSpace=wrap;html=1;" vertex="1" parent="1">
          <mxGeometry x="470" y="350" width="120" height="60" as="geometry" />
        </mxCell>
        <mxCell id="uOfbAhcUC9eBJrv4FeB4-8" value="i=i+1" style="rounded=0;whiteSpace=wrap;html=1;" vertex="1" parent="1">
          <mxGeometry x="470" y="440" width="120" height="60" as="geometry" />
        </mxCell>
      </root>
    </mxGraphModel>
  </diagram>
</mxfile>
